<svg width="1022" height="280" viewBox="0 0 1022 280" fill="none" xmlns="http://www.w3.org/2000/svg">
<path d="M280 165.666V114.333L248.5 109.083C246.167 100.333 242.667 92.166 238.583 85.166L257.25 59.5L221.083 22.75L194.833 40.833C187.25 36.75 179.083 33.25 170.917 30.916L165.667 0H114.333L109.083 31.5C100.333 33.833 92.75 37.333 85.167 41.416L59.5 23.333L22.75 59.5L41.417 85.166C37.334 92.75 33.834 100.916 31.5 109.666L0 114.333V165.666L31.5 170.916C33.833 179.666 37.333 187.25 41.417 194.833L22.75 221.083L58.917 257.25L85.167 238.583C92.75 242.666 100.917 246.166 109.667 248.5L114.917 279.416H166.25L171.5 247.916C179.667 245.583 187.833 242.083 195.417 238L221.667 256.666L257.833 220.5L239.167 194.25C243.25 186.666 246.75 179.083 249.083 170.333L280 165.666ZM140 193.666C110.25 193.666 86.333 169.75 86.333 140C86.333 110.25 110.833 86.333 140 86.333C169.167 86.333 193.667 110.25 193.667 140C193.667 169.75 169.75 193.666 140 193.666Z" fill="url(#paint0_linear_1_6)"/>
<path d="M360.184 111.96C355.96 111.96 352.28 111.16 349.144 109.56C346.072 107.96 343.672 105.656 341.944 102.648C340.28 99.576 339.448 95.96 339.448 91.8V60.12C339.448 55.896 340.28 52.28 341.944 49.272C343.672 46.264 346.072 43.96 349.144 42.36C352.28 40.76 355.96 39.96 360.184 39.96C364.408 39.96 368.056 40.792 371.128 42.456C374.2 44.056 376.568 46.36 378.232 49.368C379.896 52.376 380.728 55.96 380.728 60.12H372.088C372.088 56.152 371.032 53.112 368.92 51C366.872 48.824 363.96 47.736 360.184 47.736C356.408 47.736 353.432 48.792 351.256 50.904C349.144 53.016 348.088 56.056 348.088 60.024V91.8C348.088 95.768 349.144 98.84 351.256 101.016C353.432 103.128 356.408 104.184 360.184 104.184C363.96 104.184 366.872 103.128 368.92 101.016C371.032 98.84 372.088 95.768 372.088 91.8H380.728C380.728 95.896 379.896 99.48 378.232 102.552C376.568 105.56 374.2 107.896 371.128 109.56C368.056 111.16 364.408 111.96 360.184 111.96ZM417.363 111.768C413.139 111.768 409.491 110.968 406.419 109.368C403.347 107.768 400.947 105.464 399.219 102.456C397.555 99.384 396.723 95.768 396.723 91.608V77.592C396.723 73.368 397.555 69.752 399.219 66.744C400.947 63.736 403.347 61.432 406.419 59.832C409.491 58.232 413.139 57.432 417.363 57.432C421.587 57.432 425.235 58.232 428.307 59.832C431.379 61.432 433.747 63.736 435.411 66.744C437.139 69.752 438.003 73.336 438.003 77.496V91.608C438.003 95.768 437.139 99.384 435.411 102.456C433.747 105.464 431.379 107.768 428.307 109.368C425.235 110.968 421.587 111.768 417.363 111.768ZM417.363 104.088C421.139 104.088 424.083 103.032 426.195 100.92C428.307 98.808 429.363 95.704 429.363 91.608V77.592C429.363 73.496 428.307 70.392 426.195 68.28C424.083 66.168 421.139 65.112 417.363 65.112C413.651 65.112 410.707 66.168 408.531 68.28C406.419 70.392 405.363 73.496 405.363 77.592V91.608C405.363 95.704 406.419 98.808 408.531 100.92C410.707 103.032 413.651 104.088 417.363 104.088ZM454.957 111V58.2H463.597V68.28H465.421L463.597 70.296C463.597 66.136 464.845 62.936 467.341 60.696C469.837 58.392 473.293 57.24 477.709 57.24C483.021 57.24 487.245 58.872 490.381 62.136C493.517 65.4 495.085 69.848 495.085 75.48V111H486.445V76.44C486.445 72.664 485.421 69.784 483.373 67.8C481.389 65.752 478.669 64.728 475.213 64.728C471.629 64.728 468.781 65.816 466.669 67.992C464.621 70.168 463.597 73.304 463.597 77.4V111H454.957ZM524.808 111V71.352H509.448V63.48H524.808V54.36C524.808 50.2 526.12 46.936 528.744 44.568C531.368 42.136 534.984 40.92 539.592 40.92H555.048V48.792H539.592C537.608 48.792 536.072 49.272 534.984 50.232C533.96 51.128 533.448 52.504 533.448 54.36V63.48H555.048V71.352H533.448V111H524.808ZM569.41 111V103.128H588.13V66.072H571.81V58.2H596.77V103.128H614.53V111H569.41ZM591.49 48.696C589.378 48.696 587.714 48.152 586.498 47.064C585.282 45.976 584.674 44.504 584.674 42.648C584.674 40.728 585.282 39.224 586.498 38.136C587.714 36.984 589.378 36.408 591.49 36.408C593.602 36.408 595.266 36.984 596.482 38.136C597.698 39.224 598.306 40.728 598.306 42.648C598.306 44.504 597.698 45.976 596.482 47.064C595.266 48.152 593.602 48.696 591.49 48.696ZM634.269 128.28V120.408H651.069C653.757 120.408 655.709 119.8 656.925 118.584C658.205 117.368 658.845 115.48 658.845 112.92V106.2L659.037 96.6H657.309L658.941 95.16C658.941 99 657.661 102.04 655.101 104.28C652.541 106.52 649.117 107.64 644.829 107.64C639.389 107.64 635.101 105.88 631.965 102.36C628.829 98.776 627.261 93.976 627.261 87.96V76.824C627.261 70.808 628.829 66.04 631.965 62.52C635.101 59 639.389 57.24 644.829 57.24C649.117 57.24 652.541 58.36 655.101 60.6C657.661 62.84 658.941 65.88 658.941 69.72L657.309 68.28H658.941V58.2H667.485V112.92C667.485 117.656 666.013 121.4 663.069 124.152C660.189 126.904 656.157 128.28 650.973 128.28H634.269ZM647.421 100.152C651.005 100.152 653.821 99.032 655.869 96.792C657.917 94.552 658.941 91.448 658.941 87.48V77.4C658.941 73.432 657.917 70.328 655.869 68.088C653.821 65.848 651.005 64.728 647.421 64.728C643.773 64.728 640.925 65.816 638.877 67.992C636.893 70.168 635.901 73.304 635.901 77.4V87.48C635.901 91.576 636.893 94.712 638.877 96.888C640.925 99.064 643.773 100.152 647.421 100.152ZM705.079 111.96C698.999 111.96 694.135 110.168 690.487 106.584C686.839 102.936 685.015 98.008 685.015 91.8V58.2H693.655V91.8C693.655 95.768 694.679 98.872 696.727 101.112C698.775 103.288 701.559 104.376 705.079 104.376C708.663 104.376 711.479 103.288 713.527 101.112C715.639 98.872 716.695 95.768 716.695 91.8V58.2H725.335V91.8C725.335 98.008 723.479 102.936 719.767 106.584C716.055 110.168 711.159 111.96 705.079 111.96ZM744.594 111V58.2H753.042V68.28H755.058L752.274 74.52C752.274 68.824 753.49 64.536 755.922 61.656C758.418 58.712 762.098 57.24 766.962 57.24C772.53 57.24 776.946 59 780.21 62.52C783.538 65.976 785.202 70.68 785.202 76.632V79.8H776.562V77.4C776.562 73.24 775.538 70.072 773.49 67.896C771.506 65.656 768.658 64.536 764.946 64.536C761.298 64.536 758.418 65.656 756.306 67.896C754.258 70.136 753.234 73.304 753.234 77.4V111H744.594ZM815.692 111.96C810.124 111.96 805.74 110.552 802.54 107.736C799.34 104.856 797.74 100.984 797.74 96.12C797.74 91.192 799.34 87.32 802.54 84.504C805.74 81.688 810.06 80.28 815.5 80.28H831.82V75C831.82 71.736 830.828 69.24 828.844 67.512C826.924 65.72 824.172 64.824 820.588 64.824C817.452 64.824 814.828 65.496 812.716 66.84C810.604 68.12 809.388 69.88 809.068 72.12H800.428C801.004 67.576 803.148 63.96 806.86 61.272C810.572 58.584 815.212 57.24 820.78 57.24C826.86 57.24 831.66 58.808 835.18 61.944C838.7 65.08 840.46 69.336 840.46 74.712V111H832.012V100.92H830.572L832.012 99.48C832.012 103.32 830.508 106.36 827.5 108.6C824.556 110.84 820.62 111.96 815.692 111.96ZM817.804 105.144C821.9 105.144 825.26 104.12 827.884 102.072C830.508 100.024 831.82 97.4 831.82 94.2V86.712H815.692C812.812 86.712 810.54 87.512 808.876 89.112C807.212 90.712 806.38 92.888 806.38 95.64C806.38 98.584 807.372 100.92 809.356 102.648C811.404 104.312 814.22 105.144 817.804 105.144ZM880.935 111.96C876.583 111.96 873.095 110.808 870.471 108.504C867.847 106.136 866.535 102.936 866.535 98.904L868.263 100.92H866.535V111H857.895V40.92H866.535V56.28L866.343 68.28H868.263L866.535 70.296C866.535 66.328 867.847 63.16 870.471 60.792C873.159 58.424 876.647 57.24 880.935 57.24C886.247 57.24 890.503 59 893.703 62.52C896.903 66.04 898.503 70.84 898.503 76.92V92.376C898.503 98.392 896.903 103.16 893.703 106.68C890.503 110.2 886.247 111.96 880.935 111.96ZM878.055 104.472C881.703 104.472 884.583 103.384 886.695 101.208C888.807 99.032 889.863 95.896 889.863 91.8V77.4C889.863 73.304 888.807 70.168 886.695 67.992C884.583 65.816 881.703 64.728 878.055 64.728C874.535 64.728 871.719 65.848 869.607 68.088C867.559 70.328 866.535 73.432 866.535 77.4V91.8C866.535 95.768 867.559 98.872 869.607 101.112C871.719 103.352 874.535 104.472 878.055 104.472ZM942.625 111C939.553 111 936.865 110.392 934.561 109.176C932.257 107.96 930.465 106.232 929.185 103.992C927.905 101.752 927.265 99.128 927.265 96.12V48.792H909.505V40.92H935.905V96.12C935.905 98.296 936.513 100.024 937.729 101.304C938.945 102.52 940.577 103.128 942.625 103.128H959.425V111H942.625ZM992.988 111.96C988.828 111.96 985.18 111.128 982.044 109.464C978.972 107.8 976.572 105.464 974.844 102.456C973.18 99.384 972.348 95.832 972.348 91.8V77.4C972.348 73.304 973.18 69.752 974.844 66.744C976.572 63.736 978.972 61.4 982.044 59.736C985.18 58.072 988.828 57.24 992.988 57.24C997.148 57.24 1000.76 58.072 1003.84 59.736C1006.97 61.4 1009.37 63.736 1011.04 66.744C1012.76 69.752 1013.63 73.304 1013.63 77.4V86.712H980.796V91.8C980.796 95.96 981.852 99.16 983.964 101.4C986.076 103.576 989.084 104.664 992.988 104.664C996.316 104.664 999.004 104.088 1001.05 102.936C1003.1 101.72 1004.35 99.928 1004.8 97.56H1013.44C1012.86 101.976 1010.68 105.496 1006.91 108.12C1003.2 110.68 998.556 111.96 992.988 111.96ZM1005.18 80.952V77.4C1005.18 73.24 1004.12 70.04 1002.01 67.8C999.964 65.56 996.956 64.44 992.988 64.44C989.084 64.44 986.076 65.56 983.964 67.8C981.852 70.04 980.796 73.24 980.796 77.4V80.184H1005.85L1005.18 80.952ZM341.464 238L333.4 167.92H341.656L346.936 219.76C347.064 221.168 347.192 222.64 347.32 224.176C347.448 225.648 347.544 227.056 347.608 228.4C347.736 229.744 347.8 230.864 347.8 231.76C347.928 230.864 348.024 229.744 348.088 228.4C348.216 227.056 348.344 225.648 348.472 224.176C348.664 222.64 348.856 221.168 349.048 219.76L355.576 167.92H364.504L370.456 219.76C370.648 221.168 370.808 222.64 370.936 224.176C371.128 225.648 371.288 227.056 371.416 228.4C371.608 229.744 371.736 230.864 371.8 231.76C371.864 230.864 371.928 229.744 371.992 228.4C372.12 227.056 372.248 225.648 372.376 224.176C372.568 222.64 372.728 221.168 372.856 219.76L378.328 167.92H386.2L377.944 238H367.096L361.144 185.2C361.016 183.728 360.856 182.288 360.664 180.88C360.536 179.472 360.408 178.16 360.28 176.944C360.152 175.728 360.056 174.736 359.992 173.968C359.928 174.736 359.8 175.728 359.608 176.944C359.48 178.16 359.352 179.472 359.224 180.88C359.096 182.288 358.936 183.728 358.744 185.2L352.312 238H341.464ZM412.755 238.96C407.187 238.96 402.803 237.552 399.603 234.736C396.403 231.856 394.803 227.984 394.803 223.12C394.803 218.192 396.403 214.32 399.603 211.504C402.803 208.688 407.123 207.28 412.562 207.28H428.883V202C428.883 198.736 427.891 196.24 425.907 194.512C423.987 192.72 421.235 191.824 417.651 191.824C414.515 191.824 411.891 192.496 409.779 193.84C407.667 195.12 406.451 196.88 406.131 199.12H397.491C398.067 194.576 400.211 190.96 403.923 188.272C407.635 185.584 412.275 184.24 417.843 184.24C423.923 184.24 428.723 185.808 432.243 188.944C435.763 192.08 437.523 196.336 437.523 201.712V238H429.075V227.92H427.635L429.075 226.48C429.075 230.32 427.571 233.36 424.563 235.6C421.619 237.84 417.683 238.96 412.755 238.96ZM414.867 232.144C418.963 232.144 422.323 231.12 424.947 229.072C427.571 227.024 428.883 224.4 428.883 221.2V213.712H412.755C409.875 213.712 407.603 214.512 405.939 216.112C404.275 217.712 403.443 219.888 403.443 222.64C403.443 225.584 404.435 227.92 406.419 229.648C408.467 231.312 411.283 232.144 414.867 232.144ZM456.781 238V185.2H465.229V195.28H467.245L464.461 201.52C464.461 195.824 465.677 191.536 468.109 188.656C470.605 185.712 474.285 184.24 479.149 184.24C484.717 184.24 489.133 186 492.397 189.52C495.725 192.976 497.389 197.68 497.389 203.632V206.8H488.749V204.4C488.749 200.24 487.725 197.072 485.677 194.896C483.693 192.656 480.845 191.536 477.133 191.536C473.485 191.536 470.605 192.656 468.493 194.896C466.445 197.136 465.421 200.304 465.421 204.4V238H456.781ZM512.52 238V185.2H521.16V195.28H522.984L521.16 197.296C521.16 193.136 522.408 189.936 524.904 187.696C527.4 185.392 530.856 184.24 535.272 184.24C540.584 184.24 544.808 185.872 547.944 189.136C551.08 192.4 552.648 196.848 552.648 202.48V238H544.008V203.44C544.008 199.664 542.984 196.784 540.936 194.8C538.952 192.752 536.232 191.728 532.776 191.728C529.192 191.728 526.344 192.816 524.232 194.992C522.184 197.168 521.16 200.304 521.16 204.4V238H512.52ZM569.41 238V230.128H588.13V193.072H571.81V185.2H596.77V230.128H614.53V238H569.41ZM591.49 175.696C589.378 175.696 587.714 175.152 586.498 174.064C585.282 172.976 584.674 171.504 584.674 169.648C584.674 167.728 585.282 166.224 586.498 165.136C587.714 163.984 589.378 163.408 591.49 163.408C593.602 163.408 595.266 163.984 596.482 165.136C597.698 166.224 598.306 167.728 598.306 169.648C598.306 171.504 597.698 172.976 596.482 174.064C595.266 175.152 593.602 175.696 591.49 175.696ZM627.645 238V185.2H636.285V195.28H638.109L636.285 197.296C636.285 193.136 637.533 189.936 640.029 187.696C642.525 185.392 645.981 184.24 650.397 184.24C655.709 184.24 659.933 185.872 663.069 189.136C666.205 192.4 667.773 196.848 667.773 202.48V238H659.133V203.44C659.133 199.664 658.109 196.784 656.061 194.8C654.077 192.752 651.357 191.728 647.901 191.728C644.317 191.728 641.469 192.816 639.357 194.992C637.309 197.168 636.285 200.304 636.285 204.4V238H627.645ZM691.831 255.28V247.408H708.631C711.319 247.408 713.271 246.8 714.487 245.584C715.767 244.368 716.407 242.48 716.407 239.92V233.2L716.599 223.6H714.871L716.503 222.16C716.503 226 715.223 229.04 712.663 231.28C710.103 233.52 706.679 234.64 702.391 234.64C696.951 234.64 692.663 232.88 689.527 229.36C686.391 225.776 684.823 220.976 684.823 214.96V203.824C684.823 197.808 686.391 193.04 689.527 189.52C692.663 186 696.951 184.24 702.391 184.24C706.679 184.24 710.103 185.36 712.663 187.6C715.223 189.84 716.503 192.88 716.503 196.72L714.871 195.28H716.503V185.2H725.047V239.92C725.047 244.656 723.575 248.4 720.631 251.152C717.751 253.904 713.719 255.28 708.535 255.28H691.831ZM704.983 227.152C708.567 227.152 711.383 226.032 713.431 223.792C715.479 221.552 716.503 218.448 716.503 214.48V204.4C716.503 200.432 715.479 197.328 713.431 195.088C711.383 192.848 708.567 191.728 704.983 191.728C701.335 191.728 698.487 192.816 696.439 194.992C694.455 197.168 693.463 200.304 693.463 204.4V214.48C693.463 218.576 694.455 221.712 696.439 223.888C698.487 226.064 701.335 227.152 704.983 227.152Z" fill="white"/>
<defs>
<linearGradient id="paint0_linear_1_6" x1="28.3641" y1="279.416" x2="251.636" y2="6.48808e-06" gradientUnits="userSpaceOnUse">
<stop stop-color="#D96565"/>
<stop offset="1" stop-color="#20889F"/>
</linearGradient>
</defs>
</svg>
