<svg width="280" height="280" viewBox="0 0 280 280" fill="none" xmlns="http://www.w3.org/2000/svg">
<g clip-path="url(#clip0_1_2)">
<path d="M280 165.666V114.333L248.5 109.083C246.167 100.333 242.667 92.166 238.583 85.166L257.25 59.5L221.083 22.75L194.833 40.833C187.25 36.75 179.083 33.25 170.917 30.916L165.667 0H114.333L109.083 31.5C100.333 33.833 92.75 37.333 85.167 41.416L59.5 23.333L22.75 59.5L41.417 85.166C37.334 92.75 33.834 100.916 31.5 109.666L0 114.333V165.666L31.5 170.916C33.833 179.666 37.333 187.25 41.417 194.833L22.75 221.083L58.917 257.25L85.167 238.583C92.75 242.666 100.917 246.166 109.667 248.5L114.917 279.416H166.25L171.5 247.916C179.667 245.583 187.833 242.083 195.417 238L221.667 256.666L257.833 220.5L239.167 194.25C243.25 186.666 246.75 179.083 249.083 170.333L280 165.666ZM140 193.666C110.25 193.666 86.333 169.75 86.333 140C86.333 110.25 110.833 86.333 140 86.333C169.167 86.333 193.667 110.25 193.667 140C193.667 169.75 169.75 193.666 140 193.666Z" fill="url(#paint0_linear_1_2)"/>
</g>
<defs>
<linearGradient id="paint0_linear_1_2" x1="28.3641" y1="279.416" x2="251.636" y2="6.48808e-06" gradientUnits="userSpaceOnUse">
<stop stop-color="#D96565"/>
<stop offset="1" stop-color="#20889F"/>
</linearGradient>
<clipPath id="clip0_1_2">
<rect width="280" height="279.416" fill="white"/>
</clipPath>
</defs>
</svg>
